<svg xmlns:dc="http://purl.org/dc/elements/1.1/" xmlns:cc="http://creativecommons.org/ns#" xmlns:rdf="http://www.w3.org/1999/02/22-rdf-syntax-ns#" xmlns:svg="http://www.w3.org/2000/svg" xmlns="http://www.w3.org/2000/svg" xmlns:sodipodi="http://sodipodi.sourceforge.net/DTD/sodipodi-0.dtd" xmlns:inkscape="http://www.inkscape.org/namespaces/inkscape" version="1.1" x="0px" y="0px" viewBox="0 0 60 60"><g transform="translate(0,-992.3622)"><path d="m 26.9375,1000.3622 -1.53125,5.3437 c -1.38926,0.3828 -2.71191,0.9276 -3.9375,1.625 l -4.84375,-2.6875 -4.34375,4.3438 2.6875,4.8438 c -0.69732,1.2254 -1.24228,2.5483 -1.625,3.9375 l -5.3437499,1.5312 0,6.125 5.3437499,1.5313 c 0.38272,1.3893 0.92768,2.7118 1.625,3.9375 l -2.6875,4.8437 4.34375,4.3438 4.84375,-2.6875 c 1.22559,0.6974 2.54824,1.2423 3.9375,1.625 l 1.53125,5.3437 6.125,0 1.53125,-5.3437 c 1.38925,-0.3827 2.71191,-0.9276 3.9375,-1.625 l 4.84375,2.6875 4.34375,-4.3438 -2.6875,-4.8437 c 0.69733,-1.2257 1.24227,-2.5482 1.625,-3.9375 L 52,1025.4247 l 0,-6.125 -5.34375,-1.5312 c -0.38273,-1.3892 -0.92767,-2.7121 -1.625,-3.9375 l 2.6875,-4.8438 -4.34375,-4.3438 -4.84375,2.6875 c -1.22559,-0.6974 -2.54825,-1.2422 -3.9375,-1.625 l -1.53125,-5.3437 -6.125,0 z m 3.0625,12 c 5.48732,0 10,4.5127 10,10 0,5.4873 -4.51268,10 -10,10 -5.48732,0 -10,-4.5127 -10,-10 0,-5.4873 4.51268,-10 10,-10 z m 0,6 c -2.24466,0 -4,1.7554 -4,4 0,2.2446 1.75534,4 4,4 2.24466,0 4,-1.7554 4,-4 0,-2.2446 -1.75534,-4 -4,-4 z" style="color:#ffffff;enable-background:accumulate;" fill="#ffffff" stroke="none" marker="none" visibility="visible" display="inline" overflow="visible"/></g></svg>